<svg version="1.2" xmlns="http://www.w3.org/2000/svg" viewBox="0 0 500 500" width="500" height="500">
	<title>New Project</title>
	<style>
		.s0 { fill: #e3e3e3 } 
	</style>
	<path id="Path 0" fill-rule="evenodd" class="s0" d="m307 50.4c68.1 0.2 78.3 0.5 84.5 1.9 3.9 1 9.7 2.7 13 3.9 3.3 1.2 8.5 3.5 11.5 5.2 3 1.6 8.6 5.3 12.5 8.2 3.9 2.8 8.9 7.1 11.2 9.5 2.2 2.4 14.5 16.6 27.3 31.4 18.5 21.6 23.9 28.6 27.1 35 3.1 6.3 4.2 9.9 5.1 17 0.9 7.6 0.9 10.3-0.5 17-0.9 4.4-3.2 11.2-5.2 15-2.2 4.6-5.8 9.4-10.2 13.8-4.7 4.7-9 7.8-13.8 10.1-3.9 1.9-9.5 4-12.5 4.7-3.6 0.9-11.5 1.4-22.5 1.4-10.6 0-19.1-0.5-22.5-1.4-3-0.7-9.1-3-13.5-5.1-4.4-2.1-11.4-6.4-23.1-15.5l0.8 3.8c0.4 2 1.5 5.2 2.5 7 0.9 1.7 2.8 4.7 4.2 6.5 1.4 1.9 20.6 16.9 42.6 33.5 22 16.6 42.9 33.1 46.5 36.7 3.6 3.6 8.4 9.2 10.6 12.5 2.2 3.3 5.4 8.5 7.1 11.5 1.6 3 3.9 8.4 5.1 12 1.1 3.6 2.6 9.2 3.4 12.5 0.7 3.3 1.2 11.6 1.2 18.5 0 9.5-0.6 14.7-2.3 21.5-1.2 4.9-3.8 12.6-5.8 17-1.9 4.4-5.6 10.9-8.2 14.5-2.5 3.5-7.3 9.1-10.6 12.5-3.3 3.3-8.7 7.9-12 10.1-3.3 2.3-8.5 5.4-11.5 6.9-3 1.5-8 3.6-11 4.7-3 1-8.4 2.6-12 3.5-5.9 1.5-24 1.7-194 2-130.5 0.3-189.6 0-194.5-0.7-3.9-0.6-9.5-2.2-12.5-3.6-3.3-1.6-7.9-5.1-11.6-8.7-3.3-3.4-7.1-8.5-8.4-11.2-1.3-2.8-2.9-7.5-3.6-10.5-0.9-4.1-1-7.6-0.3-13.5 0.7-5.3 2.1-10.2 4.1-14.5 1.8-3.7 5.3-8.7 8.2-11.6 2.8-2.7 7.6-6.2 10.6-7.7 3-1.5 7.3-3.2 9.5-3.7 2.2-0.6 64.5-6.6 138.5-13.5 74-6.9 135.4-12.5 136.5-12.5 1.6 0.1 1.2-0.8-2.5-4.7-2.5-2.6-7.2-8.2-10.5-12.3-3.3-4.1-8.8-12.2-12.2-18-3.5-5.8-7.7-14.1-9.4-18.5-1.8-4.4-4-10.9-5-14.5-1.1-3.6-2.7-10.3-3.6-15-1.2-6.5-1.8-17.4-2.8-83.2l-21-9.4c-14.6-6.5-21.8-10.3-23.8-12.4-1.5-1.6-3.1-4.7-3.7-6.7-0.5-2.1-1-5.1-1-6.8 0-1.7 0.9-4.8 1.9-7 1-2.2 3.3-5.2 5.2-6.6 1.9-1.4 9.8-6.1 32-18.4l-16.8-11.1c-11.2-7.3-17.5-12.2-19-14.5-1.2-1.9-2.5-5.4-2.8-7.9-0.5-3.1-0.2-5.7 0.9-8.5 0.8-2.2 2.8-5.2 4.3-6.8 1.5-1.5 4.6-3.4 6.8-4.2 3.4-1.3 14.9-1.4 81.5-1.1zm-9.9 40.1c2.3 1.7 5.3 5 6.7 7.5 2 3.6 2.4 5.5 2.1 9.6-0.3 3.3-1.4 6.5-3.1 9.2-2.3 3.4-5.4 5.6-16 11.7l-13.3 7.4c9.3 3.9 14 6.1 16.5 7.3 3.5 1.8 5 3.5 7.2 7.8l2.9 5.5c-0.1 58.1 0.4 79.1 0.9 84 0.6 4.9 1.7 11.5 2.4 14.5 0.8 3 2.8 9.1 4.5 13.5 1.7 4.4 4.9 11.1 7.2 15 2.4 3.9 6.6 9.9 9.5 13.5 2.8 3.6 12.9 15.1 22.4 25.5 9.4 10.4 17.8 20.2 18.6 21.8 0.8 1.5 1.5 4.8 1.6 7.5 0.1 3.1-0.6 6.1-2 9-1.2 2.3-3.9 5.3-5.9 6.6-2.1 1.3-5.2 2.7-6.8 3-1.6 0.3-72.1 7.1-156.5 15.1-116 11-154 14.9-155.8 16-1.7 1.2-2.1 2.3-1.9 5.2 0.1 2.9 0.8 4.1 2.7 5 2 1 39.6 1.2 188 1 149.8-0.2 186.5-0.6 190.5-1.6 2.8-0.7 7.7-2.6 11-4 3.3-1.5 8.8-5.1 12.3-7.9 3.4-2.9 7.9-7.8 10-10.9 2.2-3.2 4.8-8.3 5.9-11.3 1.2-3 2.6-8.9 3.2-13 0.8-5.2 0.9-9.6 0.2-14.5-0.6-3.9-1.6-8.8-2.4-11-0.8-2.2-2.6-6.4-4.1-9.2-1.4-2.9-5.6-8.4-9.3-12.2-4.1-4.2-21.2-17.6-42.8-33.6-19.8-14.7-38.9-29.4-42.4-32.8-3.5-3.4-8.3-9.1-10.6-12.7-2.4-3.6-5.4-9.3-6.9-12.8-1.4-3.4-3.3-10.1-4.1-14.9-0.8-4.9-1.5-14-1.5-20.3 0.1-7.5 0.6-12.9 1.6-15.5 0.8-2.2 2.2-4.9 3.2-5.9 0.9-1 3.5-2.7 5.7-3.7 3.4-1.6 6.6-1.9 20.8-1.9 13.5 0 17.3 0.3 20 1.6 1.7 1 6.6 4.9 10.7 8.9 4.1 4 9.4 8.4 11.8 9.9 2.3 1.4 6.9 3 10.5 3.6 3.4 0.5 9.8 1 14.2 1 4.4 0 10.3-0.6 13-1.4 2.8-0.9 6.2-2.8 7.6-4.3 1.5-1.5 3.1-3.7 3.7-4.8 0.5-1.1 1.3-3.8 1.7-6 0.5-3 0.2-5.1-1.3-8.5-1.1-2.6-11.3-15.4-23.8-30.1-12.1-14-24.6-27.9-27.9-30.8-3.3-2.9-8.2-6.4-11-7.9-2.7-1.4-7.7-3.4-11-4.5-5.6-1.9-9.3-2.1-50.2-2.4-24.3-0.3-44.2-0.3-44.3-0.1 0 0.2 1.8 1.6 4.1 3.3zm-168.1 41.2c2.5 0.3 6.3 1 8.5 1.5 2.2 0.6 6 2.3 8.5 3.8 2.5 1.4 24.2 15.8 92 61l0.4 27.8c0.3 23.5 0.7 29.1 2.5 37.2 1.1 5.2 3.4 13.3 4.9 18 1.6 4.7 3.9 10.9 7.2 19h-82.3c-45.2 0-83.8-0.3-85.7-0.7-1.9-0.5-4.6-1.9-6-3.3-1.4-1.4-2.8-3.9-3.1-5.5-0.3-1.6-0.1-4.5 0.3-6.3 0.6-2.4 3.7-5.8 13.1-13.8 6.7-5.9 19.5-17 28.4-24.8 8.8-7.7 16-14.2 16-14.3-0.1-0.1-27.2 4.1-60.2 9.3-33 5.2-61.3 9.2-63 8.9-1.6-0.2-4.2-1.7-5.8-3.2-1.7-1.7-3-4.4-3.4-6.8-0.3-2.2-0.3-5.2 0.1-6.8 0.4-2 9.2-10.3 32.9-30.9 17.7-15.5 39.9-35 49.2-43.3 9.3-8.3 18.8-16.4 21-18.1 2.2-1.7 5.6-3.9 7.5-4.9 1.9-1 5.5-2.4 8-3 2.5-0.7 6.5-1 9-0.8zm244.8-20.7c0.9 0 7.3 1.6 14.2 3.5 6.9 2 13.1 4.1 13.8 4.8 0.7 0.6 1.3 1.9 1.3 2.7 0 0.8-1.1 2.5-2.3 3.7-1.3 1.2-4 2.9-6.1 3.7-2 0.9-5.4 1.6-7.5 1.6-2 0-5.5-1-7.7-2.2-2.2-1.1-4.8-3.1-5.8-4.2-1-1.2-2.5-3.6-3.3-5.4-1.2-2.8-1.2-3.5 0.1-5.7 0.9-1.4 2.3-2.5 3.3-2.5z"/>
</svg>