<svg version="1.2" xmlns="http://www.w3.org/2000/svg" viewBox="0 0 680 680" width="680" height="680">
	<title>Anomady (2)</title>
	<style>
		.s0 { fill: #191919 } 
	</style>
	<path id="Path 0" fill-rule="evenodd" class="s0" d="m343.5 13.5c20.5 0.3 28.1 0.9 42 3 9.4 1.4 21.9 3.7 28 5.1 6.1 1.4 16.2 4.2 22.5 6.1 6.3 1.9 16.9 5.7 23.5 8.3 6.6 2.6 16.3 6.8 21.5 9.2 5.2 2.5 14.4 7.3 20.5 10.8 6.1 3.5 14.4 8.6 18.5 11.3 4.1 2.8 13.4 9.4 20.5 14.7 7.1 5.4 17.4 13.9 22.8 18.9 5.3 5 12.5 12.2 15.9 15.9 3.5 3.7 9.7 11.1 13.8 16.3 4.2 5.1 10.8 13.9 14.7 19.4 3.8 5.5 9.9 14.9 13.5 21 3.6 6.1 8.3 14.6 10.5 19 2.3 4.4 6.2 12.9 8.8 19 2.6 6.1 6.7 16.8 9.2 24 2.4 7.2 5.7 18.2 7.3 24.5 1.6 6.3 4.1 18 5.6 26 2.5 13.5 2.7 17.3 3.4 56 0.5 22.8 0.9 102.4 0.9 176.8 0.1 74.3-0.2 135.2-0.7 135.2-0.4 0-5.2-1.8-10.7-4.1-5.5-2.3-23.5-9.8-40-16.6-16.5-6.9-33.6-14-38-15.8-4.4-1.8-16.8-7-27.5-11.5-10.7-4.5-25.8-10.8-33.5-14-7.7-3.2-23.2-9.6-34.5-14.3-11.3-4.7-28.1-11.8-37.5-15.7-9.4-4-21.9-9.2-28-11.7-6.1-2.5-30.8-12.7-55-22.8-24.2-10-51.9-21.5-61.5-25.5-9.6-4-30.8-12.8-47-19.5-16.2-6.8-41.3-17.1-55.8-22.9-23.9-9.7-26.8-10.6-32.7-10.6-4 0-7.8 0.6-9.8 1.6-1.7 0.9-4.9 3.3-7 5.3-2.1 2-4.8 5.4-5.9 7.6-2 3.9-2 6.3-3.3 202.5h-125.5l0.6-358.5 2.7-15.5c1.5-8.5 4.1-20.9 5.7-27.5 1.5-6.6 4.5-17.2 6.5-23.5 2.1-6.3 5.9-16.9 8.5-23.5 2.6-6.6 6.5-15.6 8.7-20 2.2-4.4 5.2-10.2 6.8-13 1.6-2.7 4.9-8.4 7.3-12.5 2.5-4.1 7.8-12.4 12-18.5 4.1-6.1 10.7-15.1 14.7-20 4-4.9 10.5-12.7 14.6-17.2 4.1-4.5 10.8-11.2 14.9-15 4.1-3.7 10.9-9.5 15-12.8 4.1-3.4 10.7-8.4 14.5-11.1 3.8-2.8 10.4-7.3 14.5-10.1 4.1-2.7 12-7.6 17.5-10.8 5.5-3.2 14.7-8.1 20.5-10.8 5.8-2.7 16.7-7.4 24.3-10.3 7.5-3 18.3-6.8 23.9-8.4 5.7-1.7 16.2-4.4 23.3-6 7.1-1.6 19.5-3.8 27.5-4.9 8-1.1 16.1-2.3 18-2.5 1.9-0.2 14.8-0.3 28.5-0.1zm-47 131c-6.6 1.5-16.3 4.2-21.5 6-5.2 1.9-14.7 5.8-21 8.8-6.3 3.1-15.3 7.9-20 10.9-4.7 2.9-13 9.2-18.5 13.9-5.5 4.8-15.2 14-21.5 20.5-6.4 6.6-14.3 15.7-17.7 20.4-3.3 4.7-8.3 12.6-11 17.5-2.7 4.9-7 13.7-9.6 19.5-2.5 5.8-5.1 12.9-5.7 15.8-0.5 2.8-0.7 7.1-0.4 9.4 0.4 2.4 1.5 5.9 2.4 7.8 1 1.9 4.1 5.6 6.9 8.3 2.8 2.6 6.1 5.1 7.3 5.6 1.3 0.6 7 3 12.8 5.4 5.8 2.5 25.8 10.9 44.5 18.7 18.7 7.8 39.2 16.4 45.5 19 6.3 2.7 21.4 8.9 33.5 14 12.1 5 24.5 10.2 27.5 11.5 3 1.3 12.1 5.1 20.3 8.4 8.1 3.4 21.3 8.9 29.4 12.2 8.2 3.4 20.2 8.4 26.8 11.1 6.6 2.8 15.6 6.5 20 8.3 4.4 1.8 17 6.9 28 11.5 11 4.5 27.8 11.3 37.3 15.1 15.3 6.2 17.9 6.9 24 6.9 5.5 0 7.6-0.5 11.7-2.9 2.8-1.5 6.3-4.6 7.9-6.7 1.6-2.2 3.4-5.3 3.8-6.9 0.5-1.6 0.9-26.4 0.9-55 0-41.2-0.3-54.7-1.6-65-0.8-7.1-2.9-17.9-4.5-24-1.6-6.1-4.4-15.1-6.3-20-2-4.9-4.6-11.5-6-14.5-1.4-3-4.9-9.8-7.9-15-2.9-5.2-7.9-12.9-10.9-17-3.1-4.1-11.6-13.7-19-21.4-7.4-7.6-16.8-16.7-20.9-20.1-4.1-3.4-11.1-8.5-15.5-11.2-4.4-2.7-10.5-6.3-13.5-8-3-1.7-10.2-5.1-16-7.6-5.8-2.5-14.1-5.6-18.5-7-4.4-1.4-13.6-3.6-20.5-5-9.3-1.9-16.8-2.7-29.5-3-9.4-0.3-22.4-0.2-29 0.3-6.6 0.4-17.4 2-24 3.5z"/>
</svg>