<svg version="1.2" xmlns="http://www.w3.org/2000/svg" viewBox="0 0 720 720" width="720" height="720">
	<title>image</title>
	<style>
		.s0 { fill: #191919 } 
	</style>
	<path id="Path 0" fill-rule="evenodd" class="s0" d="m366 8.5c15.1 0.3 27.7 1.1 38.3 2.4 8.6 1.2 21.2 3.3 28 4.7 6.7 1.4 18.1 4.3 25.2 6.3 7.1 2.1 18.2 5.7 24.5 8 6.3 2.4 16.4 6.6 22.5 9.3 6.1 2.7 16.4 7.8 23 11.5 6.6 3.6 16.3 9.3 21.5 12.6 5.2 3.3 14.6 9.7 20.8 14.3 6.1 4.6 16.5 13 23 18.7 6.4 5.7 16.4 15.3 22.1 21.3 5.7 6 13.8 15.2 18 20.4 4.2 5.2 11 14.2 15.1 20 4.1 5.8 10.3 15.2 13.8 21 3.4 5.8 8.9 15.7 12.1 22 3.3 6.3 8.2 16.9 11 23.5 2.7 6.6 6.6 16.9 8.6 23 2 6.1 4.9 15.7 6.5 21.5 1.6 5.8 3.9 15.2 5 21 1.2 5.8 3.1 17 4.3 25 2.1 14.3 2.1 17.1 2.4 205.8 0.2 152.6 0 191.1-0.9 190.8-0.7-0.3-8.3-3.4-16.8-6.9-8.5-3.6-60-25.1-114.5-47.7-54.5-22.7-164.9-68.7-245.5-102.2-80.6-33.6-147.3-61.2-148.3-61.4-1.6-0.4-1.7 5.3-1.7 217.6h-176l0.3-190.8c0.3-172.1 0.5-191.8 2-202.2 0.9-6.3 2.6-16.4 3.7-22.5 1-6.1 3.3-16.4 5-23 1.8-6.6 5-17.4 7.2-24 2.2-6.6 6.2-17.4 9-24 2.8-6.6 7.2-16.4 9.9-21.8 2.7-5.3 8.4-15.7 12.8-23 4.3-7.2 11.8-18.6 16.6-25.2 4.8-6.6 12-15.8 15.9-20.5 3.9-4.6 11.2-12.7 16.1-17.9 5-5.1 14.3-14 20.8-19.7 6.4-5.7 17-14.3 23.5-19.1 6.4-4.8 16.9-12 23.2-15.9 6.3-3.9 16.7-9.9 23-13.2 6.3-3.4 16.9-8.4 23.5-11.2 6.6-2.9 17.9-7.2 25-9.6 7.2-2.5 18.9-6 26-7.9 7.1-1.9 17.7-4.3 23.5-5.4 5.8-1.1 16.8-2.7 24.5-3.5 7.7-0.9 16.3-1.8 19-2 2.8-0.2 15.1-0.2 27.5-0.1zm-51 182.1c-5.2 1.4-14 4.3-19.5 6.5-5.5 2.1-13.9 6-18.8 8.7-4.8 2.6-12.9 7.6-17.9 11.2-5.1 3.6-13.7 10.8-19.2 16-5.4 5.2-12.4 12.6-15.6 16.5-3.1 3.8-8.2 10.8-11.2 15.5-3.1 4.7-7.6 12.5-10.1 17.5-2.4 4.9-5.5 11.8-6.8 15.3-1.6 4.1-2.1 6.6-1.4 7.1 0.6 0.5 77.6 32.8 171.2 71.8l170.2 70.8c0.1-66.6-0.3-91.9-0.9-99-0.5-7.1-1.9-17.5-3-23-1.1-5.5-3.8-15.2-5.9-21.5-2.1-6.3-6.1-16-8.9-21.5-2.7-5.5-8.2-14.9-12.2-21-5.5-8.2-10.9-14.6-21.4-25.1-10.3-10.2-17-16-25.1-21.3-6-4.1-15.5-9.6-21-12.3-5.5-2.8-15.2-6.8-21.5-8.9-6.3-2.1-16-4.8-21.5-5.9-7.9-1.7-14.3-2.3-31-2.6-15.2-0.2-23.5 0.1-30 1.1-4.9 0.8-13.3 2.7-18.5 4.1z"/>
</svg>